<mxfile host="Electron" modified="2024-07-17T11:37:24.661Z" agent="Mozilla/5.0 (X11; Linux x86_64) AppleWebKit/537.36 (KHTML, like Gecko) draw.io/24.5.3 Chrome/124.0.6367.207 Electron/30.0.6 Safari/537.36" etag="jFIwrzLwwPlMgSnrmKy1" version="24.5.3" type="device">
  <diagram name="Page-1" id="LpWJM2jY93wzjjZ_T8rP">
    <mxGraphModel dx="8463" dy="-1109" grid="0" gridSize="10" guides="1" tooltips="1" connect="1" arrows="1" fold="1" page="1" pageScale="1" pageWidth="827" pageHeight="1169" math="1" shadow="0">
      <root>
        <mxCell id="0" />
        <mxCell id="1" parent="0" />
        <mxCell id="x3Vkf04L4JM9pR8D_Ne7-1" value="" style="rounded=0;whiteSpace=wrap;html=1;fillColor=#CCCCCC;opacity=50;strokeColor=none;labelBackgroundColor=none;connectable=0;fontSize=17;" vertex="1" parent="1">
          <mxGeometry x="-5716" y="2365" width="302" height="649.605" as="geometry" />
        </mxCell>
        <mxCell id="x3Vkf04L4JM9pR8D_Ne7-2" value="" style="rounded=0;whiteSpace=wrap;html=1;fillColor=#CCCCCC;opacity=50;strokeColor=none;connectable=0;labelBackgroundColor=none;fontSize=17;" vertex="1" parent="1">
          <mxGeometry x="-5348" y="2365" width="302" height="649.605" as="geometry" />
        </mxCell>
        <mxCell id="x3Vkf04L4JM9pR8D_Ne7-3" value="\(r\cdot N_x\cdot A_x\)" style="edgeStyle=orthogonalEdgeStyle;rounded=0;orthogonalLoop=1;jettySize=auto;html=1;exitX=0;exitY=0.5;exitDx=0;exitDy=0;entryX=0.5;entryY=1;entryDx=0;entryDy=0;labelBackgroundColor=none;fontSize=15;" edge="1" parent="1" source="x3Vkf04L4JM9pR8D_Ne7-6" target="x3Vkf04L4JM9pR8D_Ne7-10">
          <mxGeometry x="0.1833" y="49" relative="1" as="geometry">
            <mxPoint x="-5529.5" y="2667.12" as="targetPoint" />
            <Array as="points">
              <mxPoint x="-5526" y="2915.1" />
              <mxPoint x="-5526" y="2915.1" />
            </Array>
            <mxPoint as="offset" />
          </mxGeometry>
        </mxCell>
        <mxCell id="x3Vkf04L4JM9pR8D_Ne7-4" value="\(D\cdot N_x\)" style="edgeStyle=orthogonalEdgeStyle;rounded=0;orthogonalLoop=1;jettySize=auto;html=1;exitX=0.5;exitY=1;exitDx=0;exitDy=0;labelBackgroundColor=none;dashed=1;fontSize=15;" edge="1" parent="1" source="x3Vkf04L4JM9pR8D_Ne7-6">
          <mxGeometry x="0.0056" y="-11" relative="1" as="geometry">
            <mxPoint x="-5746" y="2965" as="targetPoint" />
            <Array as="points">
              <mxPoint x="-5717" y="2965.1" />
            </Array>
            <mxPoint as="offset" />
          </mxGeometry>
        </mxCell>
        <mxCell id="x3Vkf04L4JM9pR8D_Ne7-5" value="\(d_{N}\cdot N_x\)" style="edgeStyle=orthogonalEdgeStyle;rounded=0;orthogonalLoop=1;jettySize=auto;html=1;startArrow=none;startFill=0;labelBackgroundColor=none;entryX=0.621;entryY=0.988;entryDx=0;entryDy=0;entryPerimeter=0;fontSize=15;" edge="1" parent="1" source="x3Vkf04L4JM9pR8D_Ne7-6" target="x3Vkf04L4JM9pR8D_Ne7-16">
          <mxGeometry x="-0.0166" y="-11" relative="1" as="geometry">
            <Array as="points">
              <mxPoint x="-5378" y="2975.1" />
              <mxPoint x="-5378" y="2975.1" />
            </Array>
            <mxPoint x="-5463" y="2936.1" as="sourcePoint" />
            <mxPoint x="-5264" y="2949.1" as="targetPoint" />
            <mxPoint as="offset" />
          </mxGeometry>
        </mxCell>
        <mxCell id="x3Vkf04L4JM9pR8D_Ne7-6" value="&lt;font style=&quot;font-size: 20px;&quot;&gt;$$N_x$$&lt;/font&gt;" style="ellipse;whiteSpace=wrap;html=1;aspect=fixed;direction=south;fillColor=#E6E6E6;labelBackgroundColor=none;fontSize=20;fontStyle=1" vertex="1" parent="1">
          <mxGeometry x="-5566" y="2925.1" width="80" height="80" as="geometry" />
        </mxCell>
        <mxCell id="x3Vkf04L4JM9pR8D_Ne7-7" value="\(\frac{a_SA_x}{1+a_ShA_x}\cdot H_{S,x}\)" style="edgeStyle=orthogonalEdgeStyle;rounded=0;orthogonalLoop=1;jettySize=auto;html=1;exitX=0;exitY=0;exitDx=0;exitDy=0;endArrow=none;endFill=0;entryX=0.5;entryY=1;entryDx=0;entryDy=0;labelBackgroundColor=none;fontSize=15;" edge="1" parent="1" source="x3Vkf04L4JM9pR8D_Ne7-10" target="x3Vkf04L4JM9pR8D_Ne7-36">
          <mxGeometry x="-0.6639" y="-29" relative="1" as="geometry">
            <mxPoint x="-5498.5" y="2770.12" as="sourcePoint" />
            <mxPoint x="-5669" y="2575.1" as="targetPoint" />
            <Array as="points">
              <mxPoint x="-5556" y="2735.1" />
              <mxPoint x="-5676" y="2735.1" />
            </Array>
            <mxPoint as="offset" />
          </mxGeometry>
        </mxCell>
        <mxCell id="x3Vkf04L4JM9pR8D_Ne7-8" value="\(D\cdot A_x\)" style="edgeStyle=orthogonalEdgeStyle;rounded=0;orthogonalLoop=1;jettySize=auto;html=1;exitX=0;exitY=0.5;exitDx=0;exitDy=0;labelBackgroundColor=none;dashed=1;fontSize=15;" edge="1" parent="1" source="x3Vkf04L4JM9pR8D_Ne7-10">
          <mxGeometry x="-0.0287" y="-11" relative="1" as="geometry">
            <mxPoint x="-5746" y="2765" as="targetPoint" />
            <mxPoint as="offset" />
          </mxGeometry>
        </mxCell>
        <mxCell id="x3Vkf04L4JM9pR8D_Ne7-9" value="\(d_{A}\cdot A_x\)" style="edgeStyle=orthogonalEdgeStyle;rounded=0;orthogonalLoop=1;jettySize=auto;html=1;entryX=0.022;entryY=0.619;entryDx=0;entryDy=0;startArrow=none;startFill=0;labelBackgroundColor=none;entryPerimeter=0;fontSize=15;" edge="1" parent="1" source="x3Vkf04L4JM9pR8D_Ne7-10" target="x3Vkf04L4JM9pR8D_Ne7-19">
          <mxGeometry x="-0.0636" y="-10" relative="1" as="geometry">
            <Array as="points">
              <mxPoint x="-5376" y="2775.1" />
            </Array>
            <mxPoint as="offset" />
          </mxGeometry>
        </mxCell>
        <mxCell id="x3Vkf04L4JM9pR8D_Ne7-10" value="&lt;font style=&quot;font-size: 20px;&quot;&gt;$$A_x$$&lt;/font&gt;" style="ellipse;whiteSpace=wrap;html=1;aspect=fixed;fillColor=#9AC7BF;labelBackgroundColor=none;fontSize=20;fontStyle=1" vertex="1" parent="1">
          <mxGeometry x="-5566" y="2725.1" width="80" height="80" as="geometry" />
        </mxCell>
        <mxCell id="x3Vkf04L4JM9pR8D_Ne7-11" value="\(d_S\cdot H_{S,x}\)" style="edgeStyle=orthogonalEdgeStyle;rounded=0;orthogonalLoop=1;jettySize=auto;html=1;entryX=0.009;entryY=0.582;entryDx=0;entryDy=0;startArrow=none;startFill=0;labelBackgroundColor=none;entryPerimeter=0;fontSize=15;" edge="1" parent="1" source="x3Vkf04L4JM9pR8D_Ne7-13" target="x3Vkf04L4JM9pR8D_Ne7-24">
          <mxGeometry x="-0.0072" y="-11" relative="1" as="geometry">
            <Array as="points">
              <mxPoint x="-5378" y="2450.1" />
              <mxPoint x="-5378" y="2450.1" />
            </Array>
            <mxPoint as="offset" />
            <mxPoint x="-5520" y="2408.1" as="sourcePoint" />
          </mxGeometry>
        </mxCell>
        <mxCell id="x3Vkf04L4JM9pR8D_Ne7-12" value="\(D\cdot H_{S,x}\)" style="edgeStyle=orthogonalEdgeStyle;rounded=0;orthogonalLoop=1;jettySize=auto;html=1;exitX=0;exitY=0.5;exitDx=0;exitDy=0;labelBackgroundColor=none;dashed=1;fontSize=15;targetPerimeterSpacing=0;jumpStyle=none;" edge="1" parent="1" source="x3Vkf04L4JM9pR8D_Ne7-13">
          <mxGeometry x="-0.029" y="-12" relative="1" as="geometry">
            <mxPoint x="-5746" y="2443" as="targetPoint" />
            <mxPoint as="offset" />
          </mxGeometry>
        </mxCell>
        <mxCell id="x3Vkf04L4JM9pR8D_Ne7-13" value="$$H_{S,x}$$" style="ellipse;whiteSpace=wrap;html=1;aspect=fixed;fillColor=#FF6666;labelBackgroundColor=none;fontSize=20;fontStyle=1" vertex="1" parent="1">
          <mxGeometry x="-5606" y="2403.1" width="80" height="80" as="geometry" />
        </mxCell>
        <mxCell id="x3Vkf04L4JM9pR8D_Ne7-14" value="\(D\cdot S\)" style="endArrow=classic;html=1;rounded=0;entryX=1;entryY=0.5;entryDx=0;entryDy=0;labelBackgroundColor=none;fontSize=15;" edge="1" parent="1" target="x3Vkf04L4JM9pR8D_Ne7-6">
          <mxGeometry x="-0.0909" y="-30" width="50" height="50" relative="1" as="geometry">
            <mxPoint x="-5526" y="3049.1" as="sourcePoint" />
            <mxPoint x="-5551.5" y="2981.7999999999997" as="targetPoint" />
            <mxPoint as="offset" />
          </mxGeometry>
        </mxCell>
        <mxCell id="x3Vkf04L4JM9pR8D_Ne7-15" value="\(d_{N}\cdot N_y\)" style="edgeStyle=orthogonalEdgeStyle;rounded=0;orthogonalLoop=1;jettySize=auto;html=1;entryX=0.5;entryY=0;entryDx=0;entryDy=0;labelBackgroundColor=none;fontSize=15;" edge="1" parent="1" source="x3Vkf04L4JM9pR8D_Ne7-16" target="x3Vkf04L4JM9pR8D_Ne7-6">
          <mxGeometry y="-10" relative="1" as="geometry">
            <Array as="points" />
            <mxPoint as="offset" />
          </mxGeometry>
        </mxCell>
        <mxCell id="x3Vkf04L4JM9pR8D_Ne7-16" value="&lt;font style=&quot;font-size: 20px;&quot;&gt;$$N_y$$&lt;/font&gt;" style="ellipse;whiteSpace=wrap;html=1;aspect=fixed;direction=south;fillColor=#E6E6E6;labelBackgroundColor=none;fontSize=20;fontStyle=1" vertex="1" parent="1">
          <mxGeometry x="-5266" y="2925.1" width="80" height="80" as="geometry" />
        </mxCell>
        <mxCell id="x3Vkf04L4JM9pR8D_Ne7-17" value="\(d_{A}\cdot A_y\)" style="edgeStyle=orthogonalEdgeStyle;rounded=0;orthogonalLoop=1;jettySize=auto;html=1;startArrow=none;startFill=0;labelBackgroundColor=none;entryX=1;entryY=0.5;entryDx=0;entryDy=0;fontSize=15;" edge="1" parent="1" source="x3Vkf04L4JM9pR8D_Ne7-19" target="x3Vkf04L4JM9pR8D_Ne7-10">
          <mxGeometry x="0.0602" y="-12" relative="1" as="geometry">
            <Array as="points">
              <mxPoint x="-5374" y="2765.1" />
              <mxPoint x="-5374" y="2765.1" />
            </Array>
            <mxPoint x="-5487" y="2760.1" as="targetPoint" />
            <mxPoint as="offset" />
          </mxGeometry>
        </mxCell>
        <mxCell id="x3Vkf04L4JM9pR8D_Ne7-18" value="\(\frac{a_IA_y}{1+a_IhA_y}\cdot H_{I,y}\)" style="edgeStyle=orthogonalEdgeStyle;rounded=0;jumpStyle=none;orthogonalLoop=1;jettySize=auto;html=1;exitX=0.5;exitY=0;exitDx=0;exitDy=0;entryX=0.5;entryY=0;entryDx=0;entryDy=0;labelBackgroundColor=none;endArrow=none;endFill=0;fontSize=15;" edge="1" parent="1" source="x3Vkf04L4JM9pR8D_Ne7-19" target="x3Vkf04L4JM9pR8D_Ne7-46">
          <mxGeometry x="0.3171" y="65" relative="1" as="geometry">
            <mxPoint as="offset" />
            <Array as="points">
              <mxPoint x="-5226" y="2685.1" />
              <mxPoint x="-5226" y="2685.1" />
            </Array>
          </mxGeometry>
        </mxCell>
        <mxCell id="x3Vkf04L4JM9pR8D_Ne7-19" value="&lt;font style=&quot;font-size: 20px;&quot;&gt;$$A_y$$&lt;/font&gt;" style="ellipse;whiteSpace=wrap;html=1;aspect=fixed;fillColor=#9AC7BF;labelBackgroundColor=none;fontSize=20;fontStyle=1" vertex="1" parent="1">
          <mxGeometry x="-5266" y="2725.1" width="80" height="80" as="geometry" />
        </mxCell>
        <mxCell id="x3Vkf04L4JM9pR8D_Ne7-20" value="\(D\cdot S\)" style="endArrow=classic;html=1;rounded=0;entryX=1;entryY=0.5;entryDx=0;entryDy=0;labelBackgroundColor=none;fontSize=15;" edge="1" parent="1" target="x3Vkf04L4JM9pR8D_Ne7-16">
          <mxGeometry x="-0.0909" y="-30" width="50" height="50" relative="1" as="geometry">
            <mxPoint x="-5226" y="3049.1" as="sourcePoint" />
            <mxPoint x="-5192.5" y="2976.0899999999997" as="targetPoint" />
            <mxPoint as="offset" />
          </mxGeometry>
        </mxCell>
        <mxCell id="x3Vkf04L4JM9pR8D_Ne7-21" value="\(D\cdot N_y\)" style="edgeStyle=orthogonalEdgeStyle;rounded=0;orthogonalLoop=1;jettySize=auto;html=1;exitX=0.5;exitY=0;exitDx=0;exitDy=0;labelBackgroundColor=none;dashed=1;fontSize=15;" edge="1" parent="1" source="x3Vkf04L4JM9pR8D_Ne7-16">
          <mxGeometry x="-0.0745" y="9" relative="1" as="geometry">
            <mxPoint x="-5016" y="2965.1" as="targetPoint" />
            <mxPoint x="-5153" y="2960.1" as="sourcePoint" />
            <Array as="points">
              <mxPoint x="-5136" y="2965.1" />
            </Array>
            <mxPoint as="offset" />
          </mxGeometry>
        </mxCell>
        <mxCell id="x3Vkf04L4JM9pR8D_Ne7-22" value="\(r\cdot N_y\cdot A_y\)" style="edgeStyle=orthogonalEdgeStyle;rounded=0;orthogonalLoop=1;jettySize=auto;html=1;exitX=0;exitY=0.5;exitDx=0;exitDy=0;labelBackgroundColor=none;fontSize=15;" edge="1" parent="1" source="x3Vkf04L4JM9pR8D_Ne7-16" target="x3Vkf04L4JM9pR8D_Ne7-19">
          <mxGeometry x="0.1" y="-46" relative="1" as="geometry">
            <mxPoint x="-5102.5" y="2933.12" as="sourcePoint" />
            <mxPoint x="-5129.567261072876" y="2686.210857153915" as="targetPoint" />
            <Array as="points" />
            <mxPoint as="offset" />
          </mxGeometry>
        </mxCell>
        <mxCell id="x3Vkf04L4JM9pR8D_Ne7-23" value="\(D\cdot A_y\)" style="edgeStyle=orthogonalEdgeStyle;rounded=0;orthogonalLoop=1;jettySize=auto;html=1;exitX=1;exitY=0.5;exitDx=0;exitDy=0;labelBackgroundColor=none;dashed=1;fontSize=15;" edge="1" parent="1" source="x3Vkf04L4JM9pR8D_Ne7-19">
          <mxGeometry x="0.0155" y="8" relative="1" as="geometry">
            <mxPoint x="-5016" y="2765.1" as="targetPoint" />
            <mxPoint x="-5073.5" y="2724.12" as="sourcePoint" />
            <Array as="points">
              <mxPoint x="-5127" y="2765.1" />
            </Array>
            <mxPoint as="offset" />
          </mxGeometry>
        </mxCell>
        <mxCell id="x3Vkf04L4JM9pR8D_Ne7-24" value="$$H_{S,y}$$" style="ellipse;whiteSpace=wrap;html=1;aspect=fixed;fillColor=#FF6666;labelBackgroundColor=none;fontSize=20;fontStyle=1" vertex="1" parent="1">
          <mxGeometry x="-5226" y="2403.1" width="80" height="80" as="geometry" />
        </mxCell>
        <mxCell id="x3Vkf04L4JM9pR8D_Ne7-25" value="\(\frac{a_SA_y}{1+a_Sh A_y}\cdot H_{S,y}\)" style="edgeStyle=orthogonalEdgeStyle;rounded=0;orthogonalLoop=1;jettySize=auto;html=1;exitX=1;exitY=0;exitDx=0;exitDy=0;endArrow=none;endFill=0;entryX=0.5;entryY=1;entryDx=0;entryDy=0;labelBackgroundColor=none;fontSize=15;" edge="1" parent="1" source="x3Vkf04L4JM9pR8D_Ne7-19" target="x3Vkf04L4JM9pR8D_Ne7-42">
          <mxGeometry x="-0.6734" y="31" relative="1" as="geometry">
            <mxPoint x="-5127.914271247462" y="2750.1242712474614" as="sourcePoint" />
            <mxPoint x="-5101" y="2595.1" as="targetPoint" />
            <Array as="points">
              <mxPoint x="-5198" y="2735.1" />
              <mxPoint x="-5084" y="2735.1" />
              <mxPoint x="-5084" y="2510.1" />
            </Array>
            <mxPoint as="offset" />
          </mxGeometry>
        </mxCell>
        <mxCell id="x3Vkf04L4JM9pR8D_Ne7-26" value="\(D\cdot H_{S,y}\)" style="edgeStyle=orthogonalEdgeStyle;rounded=0;orthogonalLoop=1;jettySize=auto;html=1;exitX=1;exitY=0.5;exitDx=0;exitDy=0;labelBackgroundColor=none;dashed=1;fontSize=15;" edge="1" parent="1" source="x3Vkf04L4JM9pR8D_Ne7-24">
          <mxGeometry x="-0.2308" y="9" relative="1" as="geometry">
            <mxPoint x="-5016" y="2443.1" as="targetPoint" />
            <mxPoint x="-4974" y="2256.12" as="sourcePoint" />
            <Array as="points">
              <mxPoint x="-5086" y="2443.1" />
              <mxPoint x="-5086" y="2443.1" />
            </Array>
            <mxPoint as="offset" />
          </mxGeometry>
        </mxCell>
        <mxCell id="x3Vkf04L4JM9pR8D_Ne7-27" value="\(D\cdot H_{I,x}\)" style="edgeStyle=orthogonalEdgeStyle;rounded=0;orthogonalLoop=1;jettySize=auto;html=1;exitX=0;exitY=0.5;exitDx=0;exitDy=0;labelBackgroundColor=none;dashed=1;fontSize=15;" edge="1" parent="1" source="x3Vkf04L4JM9pR8D_Ne7-29">
          <mxGeometry x="-0.4225" y="-13" relative="1" as="geometry">
            <mxPoint x="-5746" y="2565" as="targetPoint" />
            <mxPoint as="offset" />
          </mxGeometry>
        </mxCell>
        <mxCell id="x3Vkf04L4JM9pR8D_Ne7-28" value="&lt;font style=&quot;font-size: 15px;&quot;&gt;\(d_I\cdot H_{I,x}\)&lt;/font&gt;" style="edgeStyle=orthogonalEdgeStyle;rounded=0;jumpStyle=none;orthogonalLoop=1;jettySize=auto;html=1;entryX=0.021;entryY=0.596;entryDx=0;entryDy=0;labelBackgroundColor=none;endArrow=classic;endFill=1;entryPerimeter=0;fontSize=15;" edge="1" parent="1" source="x3Vkf04L4JM9pR8D_Ne7-29" target="x3Vkf04L4JM9pR8D_Ne7-39">
          <mxGeometry x="-0.0132" y="-11" relative="1" as="geometry">
            <Array as="points">
              <mxPoint x="-5379" y="2573.1" />
              <mxPoint x="-5379" y="2573.1" />
            </Array>
            <mxPoint as="offset" />
          </mxGeometry>
        </mxCell>
        <mxCell id="x3Vkf04L4JM9pR8D_Ne7-29" value="&lt;font data-font-src=&quot;https://fonts.googleapis.com/css?family=Roboto&quot; style=&quot;font-size: 20px;&quot;&gt;$$H_{I,x}$$&lt;/font&gt;" style="ellipse;whiteSpace=wrap;html=1;aspect=fixed;fillColor=#FFB570;labelBackgroundColor=none;fontSize=20;fontStyle=1" vertex="1" parent="1">
          <mxGeometry x="-5566" y="2525.1" width="80" height="80" as="geometry" />
        </mxCell>
        <mxCell id="x3Vkf04L4JM9pR8D_Ne7-30" value="\(\cdot e\)" style="edgeStyle=orthogonalEdgeStyle;rounded=0;jumpStyle=none;orthogonalLoop=1;jettySize=auto;html=1;labelBackgroundColor=none;entryX=0.5;entryY=1;entryDx=0;entryDy=0;fontSize=15;" edge="1" parent="1" source="x3Vkf04L4JM9pR8D_Ne7-32" target="x3Vkf04L4JM9pR8D_Ne7-29">
          <mxGeometry x="-0.2732" y="10" relative="1" as="geometry">
            <Array as="points">
              <mxPoint x="-5526" y="2615.1" />
              <mxPoint x="-5526" y="2615.1" />
            </Array>
            <mxPoint as="offset" />
            <mxPoint x="-5457" y="2612.1" as="targetPoint" />
          </mxGeometry>
        </mxCell>
        <mxCell id="x3Vkf04L4JM9pR8D_Ne7-31" value="\(\cdot (1-e)\)" style="edgeStyle=orthogonalEdgeStyle;rounded=0;orthogonalLoop=1;jettySize=auto;html=1;endArrow=classic;endFill=1;labelBackgroundColor=none;exitX=0;exitY=0.5;exitDx=0;exitDy=0;fontSize=15;dashed=1;" edge="1" parent="1" source="x3Vkf04L4JM9pR8D_Ne7-32">
          <mxGeometry x="-0.4977" y="-11" relative="1" as="geometry">
            <mxPoint x="-5746" y="2642" as="targetPoint" />
            <mxPoint as="offset" />
            <Array as="points">
              <mxPoint x="-5586" y="2642.1" />
              <mxPoint x="-5586" y="2642.1" />
            </Array>
          </mxGeometry>
        </mxCell>
        <mxCell id="x3Vkf04L4JM9pR8D_Ne7-32" value="" style="ellipse;whiteSpace=wrap;html=1;aspect=fixed;labelBackgroundColor=none;fontSize=15;" vertex="1" parent="1">
          <mxGeometry x="-5531" y="2637.1" width="10" height="10" as="geometry" />
        </mxCell>
        <mxCell id="x3Vkf04L4JM9pR8D_Ne7-33" value="&lt;span style=&quot;font-family: helvetica; font-size: 15px;&quot;&gt;\(\frac{a_IA_x}{1+a_IhA_x}\cdot H_{I,x}\)&lt;/span&gt;" style="edgeStyle=orthogonalEdgeStyle;rounded=0;orthogonalLoop=1;jettySize=auto;html=1;jumpStyle=none;endArrow=none;exitX=0.5;exitY=0;exitDx=0;exitDy=0;labelBackgroundColor=none;entryX=0.5;entryY=1;entryDx=0;entryDy=0;fontSize=15;" edge="1" parent="1" source="x3Vkf04L4JM9pR8D_Ne7-10" target="x3Vkf04L4JM9pR8D_Ne7-32">
          <mxGeometry x="0.4359" y="-65" relative="1" as="geometry">
            <mxPoint x="-5491.5" y="2667.12" as="sourcePoint" />
            <mxPoint x="-5526" y="2655.1" as="targetPoint" />
            <Array as="points" />
            <mxPoint as="offset" />
          </mxGeometry>
        </mxCell>
        <mxCell id="x3Vkf04L4JM9pR8D_Ne7-34" value="\(\cdot (1-e)\)" style="edgeStyle=orthogonalEdgeStyle;rounded=0;jumpStyle=none;orthogonalLoop=1;jettySize=auto;html=1;labelBackgroundColor=none;exitX=0;exitY=0.5;exitDx=0;exitDy=0;fontSize=15;targetPerimeterSpacing=0;dashed=1;" edge="1" parent="1" source="x3Vkf04L4JM9pR8D_Ne7-36">
          <mxGeometry x="-0.0724" y="-10" relative="1" as="geometry">
            <mxPoint x="-5746" y="2472" as="targetPoint" />
            <mxPoint as="offset" />
            <Array as="points">
              <mxPoint x="-5736" y="2472.1" />
            </Array>
            <mxPoint x="-5648" y="2539.1" as="sourcePoint" />
          </mxGeometry>
        </mxCell>
        <mxCell id="x3Vkf04L4JM9pR8D_Ne7-35" value="\(\cdot e\)" style="edgeStyle=orthogonalEdgeStyle;rounded=0;jumpStyle=none;orthogonalLoop=1;jettySize=auto;html=1;entryX=0;entryY=1;entryDx=0;entryDy=0;labelBackgroundColor=none;exitX=0.5;exitY=0;exitDx=0;exitDy=0;fontSize=15;" edge="1" parent="1" source="x3Vkf04L4JM9pR8D_Ne7-36" target="x3Vkf04L4JM9pR8D_Ne7-13">
          <mxGeometry x="-0.4016" y="10" relative="1" as="geometry">
            <mxPoint as="offset" />
            <Array as="points">
              <mxPoint x="-5671" y="2471.1" />
            </Array>
          </mxGeometry>
        </mxCell>
        <mxCell id="x3Vkf04L4JM9pR8D_Ne7-36" value="" style="ellipse;whiteSpace=wrap;html=1;aspect=fixed;labelBackgroundColor=none;fontSize=15;" vertex="1" parent="1">
          <mxGeometry x="-5677" y="2467.1" width="10" height="10" as="geometry" />
        </mxCell>
        <mxCell id="x3Vkf04L4JM9pR8D_Ne7-37" value="\(d_I\cdot H_{I,y}\)" style="edgeStyle=orthogonalEdgeStyle;rounded=0;jumpStyle=none;orthogonalLoop=1;jettySize=auto;html=1;entryX=1;entryY=0.5;entryDx=0;entryDy=0;labelBackgroundColor=none;endArrow=classic;endFill=1;fontSize=15;" edge="1" parent="1" source="x3Vkf04L4JM9pR8D_Ne7-39" target="x3Vkf04L4JM9pR8D_Ne7-29">
          <mxGeometry y="-13" relative="1" as="geometry">
            <Array as="points">
              <mxPoint x="-5365" y="2565.1" />
              <mxPoint x="-5365" y="2565.1" />
            </Array>
            <mxPoint as="offset" />
          </mxGeometry>
        </mxCell>
        <mxCell id="x3Vkf04L4JM9pR8D_Ne7-38" value="\(D\cdot H_{I,y}\)" style="edgeStyle=orthogonalEdgeStyle;rounded=0;jumpStyle=none;orthogonalLoop=1;jettySize=auto;html=1;labelBackgroundColor=none;endArrow=classic;endFill=1;exitX=1;exitY=0.5;exitDx=0;exitDy=0;dashed=1;fontSize=15;" edge="1" parent="1" source="x3Vkf04L4JM9pR8D_Ne7-39">
          <mxGeometry x="-0.4706" y="9" relative="1" as="geometry">
            <mxPoint x="-5016" y="2565.1" as="targetPoint" />
            <mxPoint as="offset" />
            <mxPoint x="-5178" y="2581.1" as="sourcePoint" />
          </mxGeometry>
        </mxCell>
        <mxCell id="x3Vkf04L4JM9pR8D_Ne7-39" value="&lt;font style=&quot;font-size: 20px;&quot;&gt;$$H_{I,y}$$&lt;/font&gt;" style="ellipse;whiteSpace=wrap;html=1;aspect=fixed;fillColor=#FFB570;labelBackgroundColor=none;fontSize=20;fontStyle=1" vertex="1" parent="1">
          <mxGeometry x="-5266" y="2525.1" width="80" height="80" as="geometry" />
        </mxCell>
        <mxCell id="x3Vkf04L4JM9pR8D_Ne7-40" value="\(\cdot (1-e)\)" style="edgeStyle=orthogonalEdgeStyle;rounded=0;jumpStyle=none;orthogonalLoop=1;jettySize=auto;html=1;labelBackgroundColor=none;endArrow=classic;endFill=1;exitX=1;exitY=0.5;exitDx=0;exitDy=0;fontSize=15;dashed=1;" edge="1" parent="1" source="x3Vkf04L4JM9pR8D_Ne7-42">
          <mxGeometry x="-0.2064" y="11" relative="1" as="geometry">
            <mxPoint x="-5016" y="2472.1" as="targetPoint" />
            <mxPoint as="offset" />
            <Array as="points">
              <mxPoint x="-5016" y="2472.1" />
            </Array>
          </mxGeometry>
        </mxCell>
        <mxCell id="x3Vkf04L4JM9pR8D_Ne7-41" value="\(\cdot e\)" style="edgeStyle=orthogonalEdgeStyle;rounded=0;jumpStyle=none;orthogonalLoop=1;jettySize=auto;html=1;labelBackgroundColor=none;endArrow=classic;endFill=1;entryX=1;entryY=1;entryDx=0;entryDy=0;fontSize=15;" edge="1" parent="1" source="x3Vkf04L4JM9pR8D_Ne7-42" target="x3Vkf04L4JM9pR8D_Ne7-24">
          <mxGeometry x="-0.475" y="-10" relative="1" as="geometry">
            <mxPoint x="-5158" y="2511.1" as="targetPoint" />
            <Array as="points">
              <mxPoint x="-5084" y="2471.1" />
              <mxPoint x="-5158" y="2471.1" />
            </Array>
            <mxPoint as="offset" />
          </mxGeometry>
        </mxCell>
        <mxCell id="x3Vkf04L4JM9pR8D_Ne7-42" value="" style="ellipse;whiteSpace=wrap;html=1;aspect=fixed;labelBackgroundColor=none;fontSize=15;" vertex="1" parent="1">
          <mxGeometry x="-5089" y="2467.1" width="10" height="10" as="geometry" />
        </mxCell>
        <mxCell id="x3Vkf04L4JM9pR8D_Ne7-43" value="\(d_S \cdot H_{S,y} \)" style="edgeStyle=orthogonalEdgeStyle;rounded=0;orthogonalLoop=1;jettySize=auto;html=1;startArrow=none;startFill=0;entryX=1;entryY=0.5;entryDx=0;entryDy=0;labelBackgroundColor=none;fontSize=15;" edge="1" parent="1" source="x3Vkf04L4JM9pR8D_Ne7-24" target="x3Vkf04L4JM9pR8D_Ne7-13">
          <mxGeometry y="-13" relative="1" as="geometry">
            <Array as="points">
              <mxPoint x="-5378" y="2443.1" />
              <mxPoint x="-5378" y="2443.1" />
            </Array>
            <mxPoint x="-5951.5" y="2303.12" as="targetPoint" />
            <mxPoint as="offset" />
          </mxGeometry>
        </mxCell>
        <mxCell id="x3Vkf04L4JM9pR8D_Ne7-44" value="\(\cdot e\)" style="edgeStyle=orthogonalEdgeStyle;rounded=0;jumpStyle=none;orthogonalLoop=1;jettySize=auto;html=1;entryX=0.5;entryY=1;entryDx=0;entryDy=0;labelBackgroundColor=none;endArrow=classic;endFill=1;fontSize=15;" edge="1" parent="1" source="x3Vkf04L4JM9pR8D_Ne7-46" target="x3Vkf04L4JM9pR8D_Ne7-39">
          <mxGeometry x="0.0481" y="-10" relative="1" as="geometry">
            <mxPoint as="offset" />
          </mxGeometry>
        </mxCell>
        <mxCell id="x3Vkf04L4JM9pR8D_Ne7-45" value="\(\cdot (1-e)\)" style="edgeStyle=orthogonalEdgeStyle;rounded=0;jumpStyle=none;orthogonalLoop=1;jettySize=auto;html=1;labelBackgroundColor=none;endArrow=classic;endFill=1;exitX=1;exitY=0.5;exitDx=0;exitDy=0;fontSize=15;dashed=1;" edge="1" parent="1" source="x3Vkf04L4JM9pR8D_Ne7-46">
          <mxGeometry x="-0.4231" y="11" relative="1" as="geometry">
            <mxPoint x="-5013" y="2648.1" as="targetPoint" />
            <Array as="points">
              <mxPoint x="-5013" y="2648.1" />
            </Array>
            <mxPoint as="offset" />
          </mxGeometry>
        </mxCell>
        <mxCell id="x3Vkf04L4JM9pR8D_Ne7-46" value="" style="ellipse;whiteSpace=wrap;html=1;aspect=fixed;labelBackgroundColor=none;fontSize=15;" vertex="1" parent="1">
          <mxGeometry x="-5231" y="2643.1" width="10" height="10" as="geometry" />
        </mxCell>
        <mxCell id="x3Vkf04L4JM9pR8D_Ne7-47" value="&lt;h1 style=&quot;font-size: 20px;&quot;&gt;Patch \(x\)&lt;/h1&gt;" style="text;html=1;strokeColor=none;fillColor=none;spacing=5;spacingTop=-20;whiteSpace=wrap;overflow=hidden;rounded=0;labelBackgroundColor=none;fontSize=20;" vertex="1" parent="1">
          <mxGeometry x="-5707" y="2372.1" width="110" height="44" as="geometry" />
        </mxCell>
        <mxCell id="x3Vkf04L4JM9pR8D_Ne7-48" value="&lt;h1 style=&quot;font-size: 20px;&quot;&gt;Patch \(y\)&lt;/h1&gt;" style="text;html=1;strokeColor=none;fillColor=none;spacing=5;spacingTop=-20;whiteSpace=wrap;overflow=hidden;rounded=0;labelBackgroundColor=none;fontSize=20;" vertex="1" parent="1">
          <mxGeometry x="-5128" y="2372.1" width="82" height="44" as="geometry" />
        </mxCell>
      </root>
    </mxGraphModel>
  </diagram>
</mxfile>
